<?xml version="1.0" standalone="no"?>
<!DOCTYPE svg PUBLIC "-//W3C//DTD SVG 20010904//EN"
 "http://www.w3.org/TR/2001/REC-SVG-20010904/DTD/svg10.dtd">
<svg version="1.0" xmlns="http://www.w3.org/2000/svg"
 width="880.000000pt" height="495.000000pt" viewBox="0 0 880.000000 495.000000"
 preserveAspectRatio="xMidYMid meet">

<g transform="translate(0.000000,495.000000) scale(0.100000,-0.100000)"
fill="#000000" stroke="none">
<path d="M2173 4584 c-17 -18 -16 -41 2 -48 16 -6 16 -5 20 32 3 28 -6 34 -22
16z"/>
<path d="M2474 4436 c-9 -24 15 -56 41 -56 22 0 25 4 25 35 0 32 -2 35 -30 35
-17 0 -33 -6 -36 -14z"/>
<path d="M2267 4193 c-10 -9 -8 -46 3 -63 7 -12 13 -11 34 9 20 19 23 28 15
42 -10 19 -39 25 -52 12z"/>
<path d="M2531 3967 c-22 -24 -22 -24 -2 -30 11 -3 28 1 38 8 16 13 17 15 2
30 -14 14 -17 13 -38 -8z"/>
<path d="M2206 3752 c-7 -12 1 -53 14 -66 16 -16 32 7 28 40 -3 28 -30 45 -42
26z"/>
<path d="M710 3400 c-9 -6 -10 -10 -3 -10 6 0 15 5 18 10 8 12 4 12 -15 0z"/>
<path d="M785 3373 c-5 -10 -9 -31 -11 -47 -2 -26 0 -27 8 -10 6 10 17 26 25
35 11 14 11 18 -1 28 -11 9 -15 8 -21 -6z m8 -18 c-3 -9 -8 -14 -10 -11 -3 3
-2 9 2 15 9 16 15 13 8 -4z"/>
<path d="M417 3363 c-15 -15 -6 -33 17 -33 33 0 42 16 17 29 -23 13 -26 13
-34 4z"/>
<path d="M887 3333 c-4 -3 -7 -13 -7 -22 1 -13 3 -13 11 2 11 19 8 33 -4 20z"/>
<path d="M614 3314 c3 -9 6 -18 6 -20 0 -2 9 -4 20 -4 24 0 25 6 6 26 -20 19
-40 18 -32 -2z"/>
<path d="M861 3211 l-22 -31 24 0 c35 0 55 26 35 46 -14 14 -18 13 -37 -15z"/>
<path d="M504 3182 c-18 -12 -23 -50 -8 -63 12 -10 18 -9 27 1 9 10 9 11 0 6
-7 -4 -13 -3 -13 3 0 6 9 15 20 21 18 10 19 13 6 25 -17 17 -17 17 -32 7z"/>
<path d="M681 3116 c-9 -11 -10 -20 -1 -36 l11 -21 24 23 c17 17 21 26 13 35
-14 17 -33 16 -47 -1z"/>
<path d="M1150 3033 c0 -13 5 -23 10 -23 13 0 13 11 0 30 -8 12 -10 11 -10 -7z"/>
<path d="M834 3007 c-6 -16 1 -96 10 -104 3 -3 6 21 6 55 0 60 -5 76 -16 49z"/>
<path d="M440 2926 c0 -8 -3 -22 -6 -31 -6 -13 -1 -16 21 -13 38 4 42 21 10
42 -21 14 -25 14 -25 2z"/>
<path d="M690 2694 c0 -17 22 -14 28 4 2 7 -3 12 -12 12 -9 0 -16 -7 -16 -16z"/>
<path d="M426 2603 c-4 -10 1 -23 14 -35 16 -15 20 -16 20 -3 0 8 7 15 15 15
8 0 15 7 15 16 0 10 -6 14 -15 10 -8 -3 -15 -1 -15 4 0 17 -27 11 -34 -7z"/>
<path d="M7365 1210 c-14 -23 -23 -45 -21 -49 3 -5 -10 -19 -29 -32 -34 -24
-64 -73 -51 -86 3 -3 6 0 6 8 0 8 14 23 32 33 31 19 31 19 24 0 -4 -10 -10
-35 -12 -54 -4 -32 -2 -30 14 14 19 50 43 76 74 76 21 0 43 36 28 45 -6 4 -8
11 -4 16 3 6 -2 19 -11 29 -9 10 -14 24 -10 29 3 6 1 11 -4 11 -6 0 -22 -18
-36 -40z"/>
<path d="M7345 1030 c-3 -5 4 -14 16 -20 27 -15 30 -10 8 12 -10 10 -21 13
-24 8z"/>
<path d="M7540 1010 c0 -5 10 -10 23 -10 18 0 19 2 7 10 -19 13 -30 13 -30 0z"/>
<path d="M7672 1012 c-9 -6 0 -14 28 -27 23 -10 54 -33 70 -51 15 -18 31 -30
34 -27 3 3 -9 18 -27 34 -17 15 -32 34 -32 41 0 12 -5 14 -48 17 -10 0 -15 6
-12 11 7 12 4 12 -13 2z"/>
<path d="M7272 995 c9 -10 21 -16 28 -13 7 2 -1 10 -16 17 -27 12 -28 11 -12
-4z"/>
<path d="M7418 1000 c-34 -10 -88 -48 -85 -59 1 -5 -9 -18 -23 -30 l-25 -22
35 21 c38 22 60 26 60 10 0 -5 -6 -10 -13 -10 -8 0 -22 -9 -32 -20 -10 -11
-23 -20 -30 -20 -18 0 -35 -46 -35 -98 0 -46 33 -122 48 -108 3 4 6 39 7 80 0
55 4 77 18 90 9 10 17 22 17 27 0 6 4 7 10 4 6 -3 7 1 4 10 -9 21 12 42 48 50
l30 7 -27 14 c-19 10 -33 11 -53 3 -53 -20 -8 10 53 35 57 24 52 34 -7 16z"/>
<path d="M7907 996 c-9 -23 21 -28 33 -6 9 17 7 20 -9 20 -10 0 -21 -6 -24
-14z"/>
<path d="M7709 924 c39 -36 71 -72 71 -78 0 -6 14 -26 30 -45 17 -19 27 -37
23 -40 -4 -3 -8 -36 -9 -72 0 -54 -6 -75 -32 -120 -17 -30 -44 -66 -59 -81
-31 -30 -138 -88 -161 -88 -9 0 -12 -3 -9 -7 11 -10 147 35 147 49 0 4 7 4 17
1 11 -4 14 -3 9 5 -4 7 9 19 33 32 56 28 97 116 104 218 3 39 1 74 -3 77 -12
7 -49 82 -44 88 2 2 -2 10 -11 17 -8 7 -15 9 -15 4 0 -4 -19 11 -42 33 -24 23
-60 49 -81 58 -36 15 -34 12 32 -51z m106 -54 c3 -5 1 -10 -4 -10 -6 0 -11 5
-11 10 0 6 2 10 4 10 3 0 8 -4 11 -10z"/>
<path d="M7475 971 c3 -2 31 -8 63 -12 31 -4 66 -10 77 -14 13 -4 11 -1 -5 8
-23 13 -147 30 -135 18z"/>
<path d="M7425 960 c3 -5 12 -7 20 -3 21 7 19 13 -6 13 -11 0 -18 -4 -14 -10z"/>
<path d="M7290 946 c0 -9 5 -16 10 -16 6 0 10 4 10 9 0 6 -4 13 -10 16 -5 3
-10 -1 -10 -9z"/>
<path d="M7946 934 c-9 -24 -4 -25 24 -4 24 19 24 20 4 20 -12 0 -25 -7 -28
-16z"/>
<path d="M6679 932 c-23 -4 -12 -42 12 -42 20 0 22 5 11 30 -4 9 -14 14 -23
12z"/>
<path d="M7458 906 l-17 -34 27 8 c15 4 34 11 43 14 8 4 26 2 40 -4 23 -10 23
-10 -4 -5 -17 3 -26 2 -23 -3 3 -5 -2 -20 -12 -33 -10 -13 -21 -32 -25 -41 -4
-11 -17 -18 -32 -18 -18 0 -25 -5 -25 -19 0 -25 18 -37 33 -22 17 17 37 13 37
-8 0 -43 25 -70 32 -34 3 15 4 15 21 -1 24 -24 18 -52 -11 -49 -12 2 -21 -2
-19 -9 3 -14 -27 -22 -57 -14 -30 7 -64 79 -47 99 9 11 8 17 -3 26 -8 6 -12
22 -10 34 2 12 -3 1 -12 -24 -25 -71 -14 -112 39 -139 32 -17 35 -20 14 -16
-26 6 -27 5 -17 -15 9 -16 9 -20 0 -14 -9 6 -9 3 -1 -13 20 -37 39 -44 131
-48 39 -1 78 3 99 12 34 14 81 57 81 75 0 18 -17 9 -30 -16 -7 -14 -19 -25
-27 -25 -7 0 -13 -3 -13 -7 0 -5 -41 -9 -90 -11 -58 -2 -90 1 -90 7 0 6 7 11
15 11 20 0 19 20 -2 36 -17 12 -16 13 5 14 12 0 22 -3 22 -7 0 -5 20 -9 45
-10 25 -1 45 3 45 8 0 5 7 9 16 9 17 0 44 56 44 92 0 21 0 21 16 2 15 -18 15
-17 10 14 -3 19 -2 31 4 27 5 -3 12 -32 16 -65 7 -65 24 -82 24 -24 0 19 4 43
9 52 6 11 4 31 -4 56 -15 43 -34 61 -49 46 -17 -17 -33 -11 -60 25 l-27 35 28
-3 c16 -2 35 -7 43 -12 13 -8 13 -6 1 8 -7 9 -17 15 -21 12 -5 -3 -31 7 -59
21 -27 15 -69 28 -93 31 -41 4 -44 2 -60 -31z m147 -16 c3 -6 -1 -7 -9 -4 -18
7 -21 14 -7 14 6 0 13 -4 16 -10z m17 -61 c30 -16 20 -28 -14 -18 -46 13 -55
11 -32 -6 18 -14 18 -14 -8 -15 -20 0 -26 4 -22 15 4 9 0 15 -10 15 -17 0 -21
12 -9 24 9 8 69 -1 95 -15z m35 -111 c-3 -7 -5 -2 -5 12 0 14 2 19 5 13 2 -7
2 -19 0 -25z"/>
<path d="M7965 910 c-5 -8 -10 -41 -15 -100 -1 -10 -4 -9 -10 5 -8 18 -9 17
-9 -7 -1 -15 3 -29 8 -32 5 -3 8 -22 7 -41 -1 -19 2 -31 6 -27 11 11 30 144
23 169 -3 13 -1 23 5 23 5 0 10 5 10 10 0 13 -17 13 -25 0z"/>
<path d="M7163 860 c-3 -11 -10 -20 -17 -21 -6 0 -2 -4 9 -8 11 -5 32 -5 48 0
16 5 25 4 22 -2 -4 -5 -15 -9 -26 -9 -10 0 -19 -7 -19 -15 0 -8 6 -15 14 -15
9 0 12 -9 9 -27 l-5 -28 16 22 c9 12 23 40 31 62 16 46 9 56 -43 59 -26 2 -35
-2 -39 -18z"/>
<path d="M6920 853 c0 -7 7 -13 15 -13 8 0 15 6 15 13 0 8 -7 14 -15 14 -8 0
-15 -6 -15 -14z"/>
<path d="M6467 683 c-9 -8 -9 -48 -1 -56 4 -3 15 4 24 16 13 16 15 26 8 35
-12 13 -21 15 -31 5z"/>
<path d="M7190 652 c0 -18 38 -48 55 -43 6 1 7 -1 3 -4 -10 -11 10 -45 26 -45
8 0 23 -16 34 -34 27 -46 93 -93 143 -101 53 -9 76 10 28 23 -19 5 -35 5 -37
1 -2 -4 -10 -5 -18 -2 -7 3 -11 10 -7 16 4 7 0 8 -11 4 -13 -5 -30 5 -62 39
-24 25 -41 50 -38 56 4 7 2 8 -4 4 -8 -5 -12 5 -12 33 0 28 -4 41 -14 41 -7 0
-19 7 -26 15 -18 21 -60 20 -60 -3z m45 -22 c3 -5 2 -10 -4 -10 -5 0 -13 5
-16 10 -3 6 -2 10 4 10 5 0 13 -4 16 -10z"/>
<path d="M6783 633 c-18 -7 -16 -40 1 -46 19 -7 40 18 32 38 -6 15 -12 17 -33
8z"/>
<path d="M7010 616 c0 -2 7 -7 16 -10 8 -3 12 -2 9 4 -6 10 -25 14 -25 6z"/>
<path d="M7866 468 c-9 -12 -18 -19 -21 -16 -4 3 -22 -10 -41 -29 -28 -27 -33
-38 -24 -48 7 -8 10 -18 7 -22 -2 -4 4 -16 14 -25 13 -12 20 -14 27 -5 17 22
22 49 13 61 -7 8 -1 23 19 46 16 19 27 37 24 41 -2 4 2 10 8 12 9 4 10 6 1 6
-6 1 -19 -9 -27 -21z"/>
<path d="M7605 463 c-16 -3 -34 -9 -40 -15 -13 -14 55 -2 69 12 6 6 8 9 6 9
-3 -1 -18 -4 -35 -6z"/>
<path d="M6658 403 c-25 -6 -31 -34 -12 -54 20 -22 35 -24 52 -7 9 9 8 16 -6
32 -12 14 -13 17 -2 11 13 -8 13 -7 1 8 -7 9 -14 16 -15 16 0 -1 -8 -3 -18 -6z"/>
<path d="M7440 396 c0 -9 50 -12 62 -5 8 6 -1 9 -24 9 -21 0 -38 -2 -38 -4z"/>
<path d="M7450 355 c-10 -12 -10 -15 3 -15 8 0 20 7 27 15 10 12 10 15 -3 15
-8 0 -20 -7 -27 -15z"/>
<path d="M7010 344 c0 -17 28 -49 36 -41 4 4 -2 17 -14 30 -12 12 -22 17 -22
11z"/>
</g>
</svg>
